<svg height="256" viewBox="-3.8 -3.8 45.58 45.58" width="256" xmlns="http://www.w3.org/2000/svg"><rect fill="#fff" height="45.58" rx="6.837" width="45.58" x="-3.8" y="-3.8"/><path d="m21.553 2.322c-6.103 1.113-11.597 4.371-18.945 1.084.096.333.189.667.283 1h-1.75l-.141-.5h-1l8.988 31.75h1l-4.01-14.167h1.75c.109.39.221.778.33 1.168 7.347 3.285 12.842.027 18.942-1.086-1.814-6.416-3.631-12.833-5.447-19.249zm-11.757 3.509c2.07-.046 4.032-.473 5.971-.983.521 1.833 1.039 3.667 1.559 5.5-1.938.51-3.901.937-5.973.983-.519-1.834-1.039-3.667-1.557-5.5zm-4.03 14.908-4.412-15.583h1.75c1.472 5.194 2.941 10.389 4.412 15.583zm1.407-4.748c-.508-1.792-1.017-3.583-1.522-5.375 2.046.751 3.951 1.005 5.773.964.507 1.792 1.015 3.583 1.521 5.375-1.82.041-3.726-.213-5.772-.964zm13.478 6.107c-1.938.511-3.9.937-5.972.982-.519-1.834-1.038-3.667-1.558-5.5 2.069-.046 4.032-.473 5.973-.983.519 1.835 1.039 3.667 1.557 5.501zm3.388-7.463c-1.729.375-3.414.889-5.121 1.337-.508-1.792-1.016-3.583-1.521-5.375 1.706-.449 3.395-.962 5.12-1.337.506 1.792 1.014 3.583 1.522 5.375zm-.812-9.189c.096.333.189.667.283 1 .787-.118 1.584-.195 2.398-.213.52 1.833 1.037 3.667 1.557 5.5-.813.018-1.611.095-2.396.213.591 2.083 1.181 4.167 1.771 6.25.785-.118 1.584-.195 2.396-.213.521 1.833 1.039 3.667 1.56 5.5-2.07.045-4.033.473-5.974.981-.121-.432-.243-.86-.364-1.291-2.018.529-4.008 1.15-6.068 1.525.217.766.434 1.529.649 2.293 6.101-1.113 11.597-4.371 18.94-1.086-1.814-6.416-3.633-12.833-5.449-19.25-3.42-1.527-6.436-1.64-9.303-1.209zm11.606 12.876c-2.046-.751-3.95-1.005-5.772-.964-.508-1.792-1.016-3.583-1.521-5.375 1.82-.041 3.727.213 5.771.964.506 1.792 1.015 3.583 1.522 5.375z"/></svg>